<?xml version="1.0" encoding="UTF-8" standalone="no"?>
<!-- Created with Inkscape (http://www.inkscape.org/) -->

<svg
   xmlns:dc="http://purl.org/dc/elements/1.1/"
   xmlns:cc="http://creativecommons.org/ns#"
   xmlns:rdf="http://www.w3.org/1999/02/22-rdf-syntax-ns#"
   xmlns:svg="http://www.w3.org/2000/svg"
   xmlns="http://www.w3.org/2000/svg"
   xmlns:xlink="http://www.w3.org/1999/xlink"
   xmlns:sodipodi="http://sodipodi.sourceforge.net/DTD/sodipodi-0.dtd"
   xmlns:inkscape="http://www.inkscape.org/namespaces/inkscape"
   width="128"
   height="128"
   viewBox="0 0 128 128"
   id="svg2"
   version="1.1"
   inkscape:version="0.91 r13725"
   sodipodi:docname="Icon.svg"
   inkscape:export-filename="N:\Programm Zubehör\Arduino\Wild Thumper\3 - Bibliotheken\AUGV\StudioProjects\Logos\dpi.png"
   inkscape:export-xdpi="33.75"
   inkscape:export-ydpi="33.75">
  <sodipodi:namedview
     id="base"
     pagecolor="#ffffff"
     bordercolor="#666666"
     borderopacity="1.0"
     inkscape:pageopacity="0.0"
     inkscape:pageshadow="2"
     inkscape:zoom="1.979899"
     inkscape:cx="125.09831"
     inkscape:cy="72.474254"
     inkscape:document-units="px"
     inkscape:current-layer="layer1"
     showgrid="false"
     units="px"
     inkscape:window-width="1920"
     inkscape:window-height="1057"
     inkscape:window-x="-8"
     inkscape:window-y="-8"
     inkscape:window-maximized="1" />
  <defs
     id="defs4">
    <linearGradient
       inkscape:collect="always"
       id="linearGradient4382">
      <stop
         style="stop-color:#917c6f;stop-opacity:0"
         offset="0"
         id="stop4384" />
      <stop
         id="stop4392"
         offset="0.10848763"
         style="stop-color:#917c6f;stop-opacity:0" />
      <stop
         id="stop4390"
         offset="0.1209993"
         style="stop-color:#917c6f;stop-opacity:1" />
      <stop
         style="stop-color:#917c6f;stop-opacity:1;"
         offset="0.83378464"
         id="stop4394" />
      <stop
         id="stop4396"
         offset="0.84527445"
         style="stop-color:#917c6f;stop-opacity:1;" />
      <stop
         style="stop-color:#917c6f;stop-opacity:0"
         offset="1"
         id="stop4386" />
    </linearGradient>
    <linearGradient
       inkscape:collect="always"
       id="linearGradient4372">
      <stop
         style="stop-color:#008040;stop-opacity:0"
         offset="0"
         id="stop4374" />
      <stop
         id="stop4380"
         offset="0.69999999"
         style="stop-color:#008000;stop-opacity:0" />
      <stop
         style="stop-color:#008000;stop-opacity:1"
         offset="1"
         id="stop4376" />
    </linearGradient>
    <linearGradient
       inkscape:collect="always"
       id="linearGradient4288">
      <stop
         style="stop-color:#008000;stop-opacity:1;"
         offset="0"
         id="stop4290" />
      <stop
         style="stop-color:#008000;stop-opacity:0;"
         offset="1"
         id="stop4292" />
    </linearGradient>
    <linearGradient
       inkscape:collect="always"
       id="linearGradient4280">
      <stop
         style="stop-color:#000000;stop-opacity:1;"
         offset="0"
         id="stop4282" />
      <stop
         style="stop-color:#000000;stop-opacity:0;"
         offset="1"
         id="stop4284" />
    </linearGradient>
    <radialGradient
       inkscape:collect="always"
       xlink:href="#linearGradient4280"
       id="radialGradient4286"
       cx="64.669741"
       cy="989.91135"
       fx="64.669741"
       fy="989.91135"
       r="63.188159"
       gradientTransform="matrix(1,0,0,0.98833122,0,11.551059)"
       gradientUnits="userSpaceOnUse" />
    <radialGradient
       inkscape:collect="always"
       xlink:href="#linearGradient4288"
       id="radialGradient4294"
       cx="64.669739"
       cy="989.91138"
       fx="64.669739"
       fy="989.91138"
       r="63.188159"
       gradientTransform="matrix(1.3045026,3.2338874e-6,-3.2172298e-6,1.3016376,-19.688914,-298.59466)"
       gradientUnits="userSpaceOnUse" />
    <radialGradient
       inkscape:collect="always"
       xlink:href="#linearGradient4372"
       id="radialGradient4378"
       cx="64.669739"
       cy="989.91138"
       fx="64.669739"
       fy="989.91138"
       r="63.188159"
       gradientTransform="matrix(1.2875866,-2.4711226e-6,2.4562266e-6,1.2798249,-18.600582,-277.00173)"
       gradientUnits="userSpaceOnUse" />
    <radialGradient
       inkscape:collect="always"
       xlink:href="#linearGradient4382"
       id="radialGradient4388"
       cx="1.4210855e-014"
       cy="0"
       fx="1.4210855e-014"
       fy="0"
       r="83.22923"
       gradientUnits="userSpaceOnUse" />
  </defs>
  <metadata
     id="metadata7">
    <rdf:RDF>
      <cc:Work
         rdf:about="">
        <dc:format>image/svg+xml</dc:format>
        <dc:type
           rdf:resource="http://purl.org/dc/dcmitype/StillImage" />
        <dc:title />
      </cc:Work>
    </rdf:RDF>
  </metadata>
  <g
     transform="translate(0,-924.36216)"
     id="layer1"
     inkscape:groupmode="layer"
     inkscape:label="Ebene 1">
    <g
       id="g4194"
       style="fill:url(#radialGradient4294);fill-opacity:1;stroke:none">
      <text
         xml:space="preserve"
         style="font-style:normal;font-weight:normal;font-size:29.57336235px;line-height:125%;font-family:sans-serif;letter-spacing:0px;word-spacing:0px;fill:url(#radialGradient4294);fill-opacity:1;stroke:none;stroke-width:1px;stroke-linecap:butt;stroke-linejoin:miter;stroke-opacity:1"
         x="-4.3666663"
         y="1003.4336"
         id="text4136"
         sodipodi:linespacing="125%"><tspan
           sodipodi:role="line"
           x="-4.3666663"
           y="1003.4336"
           style="font-style:normal;font-variant:normal;font-weight:normal;font-stretch:normal;font-size:110.90010834px;font-family:'Berlin Sans FB';-inkscape-font-specification:'Berlin Sans FB';fill:url(#radialGradient4294);fill-opacity:1;stroke:none"
           id="tspan4148">D</tspan></text>
      <text
         sodipodi:linespacing="125%"
         id="text4140"
         y="1003.7907"
         x="83.490479"
         style="font-style:normal;font-weight:normal;font-size:29.57336235px;line-height:125%;font-family:sans-serif;letter-spacing:0px;word-spacing:0px;fill:url(#radialGradient4294);fill-opacity:1;stroke:none;stroke-width:1px;stroke-linecap:butt;stroke-linejoin:miter;stroke-opacity:1"
         xml:space="preserve"><tspan
           style="font-style:normal;font-variant:normal;font-weight:normal;font-stretch:normal;font-size:110.90010834px;font-family:'Berlin Sans FB';-inkscape-font-specification:'Berlin Sans FB';fill:url(#radialGradient4294);fill-opacity:1;stroke:none"
           y="1003.7907"
           x="83.490479"
           id="tspan4142"
           sodipodi:role="line">I</tspan></text>
      <text
         xml:space="preserve"
         style="font-style:normal;font-weight:normal;font-size:29.57336235px;line-height:125%;font-family:sans-serif;letter-spacing:0px;word-spacing:0px;fill:url(#radialGradient4294);fill-opacity:1;stroke:none;stroke-width:1px;stroke-linecap:butt;stroke-linejoin:miter;stroke-opacity:1"
         x="64.447731"
         y="1052.3622"
         id="text4144"
         sodipodi:linespacing="125%"><tspan
           sodipodi:role="line"
           id="tspan4146"
           x="64.447731"
           y="1052.3622"
           style="font-style:normal;font-variant:normal;font-weight:normal;font-stretch:normal;font-size:110.90010834px;font-family:'Berlin Sans FB';-inkscape-font-specification:'Berlin Sans FB';fill:url(#radialGradient4294);fill-opacity:1;stroke:none">Y</tspan></text>
    </g>
    <circle
       r="4.4642859"
       cy="985.755"
       cx="120.53571"
       id="path4152"
       style="fill:#ffffff;fill-opacity:1;stroke:#658000;stroke-width:0.4;stroke-miterlimit:4;stroke-dasharray:none;stroke-opacity:1" />
    <g
       id="g4166"
       transform="matrix(0.26408066,0,0,0.26408066,26.43644,1028.8208)"
       inkscape:label="Gear24"
       style="fill:url(#radialGradient4388);fill-opacity:1">
      <path
         id="path4168"
         d="m 69.80222,-5.62101 1.75337,-0.14119 4.67522,0.76577 6.49842,2.71905 0,4.55476 -6.49842,2.71905 -4.67522,0.76577 -1.75337,-0.14119 -0.92363,7.01566 1.73017,0.31742 4.31772,1.94971 5.57325,4.30832 -1.17886,4.39956 -6.98074,0.94449 -4.7141,-0.47036 -1.65709,-0.59019 -2.70794,6.53755 1.58906,0.75441 3.66597,3.00079 4.26828,5.60398 -2.27739,3.94453 -6.98732,-0.89444 -4.43174,-1.67443 -1.44787,-0.99897 -4.30772,5.61393 1.33967,1.13998 2.76439,3.84736 2.67242,6.51774 -3.2207,3.2207 -6.51774,-2.67242 -3.84736,-2.76439 -1.13998,-1.33967 -5.61393,4.30772 0.99897,1.44787 1.67443,4.43174 0.89444,6.98732 -3.94453,2.27739 -5.60398,-4.26828 -3.00079,-3.66597 -0.75441,-1.58906 -6.53755,2.70794 0.59019,1.65709 0.47036,4.7141 -0.94449,6.98074 -4.39956,1.17886 -4.30832,-5.57325 -1.94971,-4.31772 -0.31742,-1.73017 -7.01566,0.92363 0.14119,1.75337 -0.76577,4.67522 -2.71905,6.49842 -4.55476,0 -2.71905,-6.49842 -0.76577,-4.67522 0.14119,-1.75337 -7.01566,-0.92363 -0.31742,1.73017 -1.94971,4.31772 -4.30832,5.57325 -4.39956,-1.17886 -0.94449,-6.98074 0.47036,-4.7141 0.59019,-1.65709 -6.53755,-2.70794 -0.75441,1.58906 -3.00079,3.66597 -5.60398,4.26828 -3.94453,-2.27739 0.89444,-6.98732 1.67443,-4.43174 0.99897,-1.44787 -5.61393,-4.30772 -1.13998,1.33967 -3.84736,2.76439 -6.51774,2.67242 -3.2207,-3.2207 2.67242,-6.51774 2.76439,-3.84736 1.33967,-1.13998 -4.30772,-5.61393 -1.44787,0.99897 -4.43174,1.67443 -6.98732,0.89444 -2.27739,-3.94453 4.26828,-5.60398 3.66597,-3.00079 1.58906,-0.75441 -2.70794,-6.53755 -1.65709,0.59019 -4.7141,0.47036 -6.98074,-0.94449 -1.17886,-4.39956 5.57325,-4.30832 4.31772,-1.94971 1.73017,-0.31742 -0.92363,-7.01566 -1.75337,0.14119 -4.67522,-0.76577 -6.49842,-2.71905 0,-4.55476 6.49842,-2.71905 4.67522,-0.76577 1.75337,0.14119 0.92363,-7.01566 -1.73017,-0.31742 -4.31772,-1.94971 -5.57325,-4.30832 1.17886,-4.39956 6.98074,-0.94449 4.7141,0.47036 1.65709,0.59019 2.70794,-6.53755 -1.58906,-0.75441 -3.66597,-3.00079 -4.26828,-5.60398 2.27739,-3.94453 6.98732,0.89444 4.43174,1.67443 1.44787,0.99897 4.30772,-5.61393 -1.33967,-1.13998 -2.76439,-3.84736 -2.67242,-6.51774 3.2207,-3.2207 6.51774,2.67242 3.84736,2.76439 1.13998,1.33967 5.61393,-4.30772 -0.99897,-1.44787 -1.67443,-4.43174 -0.89444,-6.98732 3.94453,-2.27739 5.60398,4.26828 3.00079,3.66597 0.75441,1.58906 6.53755,-2.70794 -0.59019,-1.65709 -0.47036,-4.7141 0.94449,-6.98074 4.39956,-1.17886 4.30832,5.57325 1.94971,4.31772 0.31742,1.73017 7.01566,-0.92363 -0.14119,-1.75337 0.76577,-4.67522 2.71905,-6.49842 4.55476,0 2.71905,6.49842 0.76577,4.67522 -0.14119,1.75337 7.01566,0.92363 0.31742,-1.73017 1.94971,-4.31772 4.30832,-5.57325 4.39956,1.17886 0.94449,6.98074 -0.47036,4.7141 -0.59019,1.65709 6.53755,2.70794 0.75441,-1.58906 3.00079,-3.66597 5.60398,-4.26828 3.94453,2.27739 -0.89444,6.98732 -1.67443,4.43174 -0.99897,1.44787 5.61393,4.30772 1.13998,-1.33967 3.84736,-2.76439 6.51774,-2.67242 3.2207,3.2207 -2.67242,6.51774 -2.76439,3.84736 -1.33967,1.13998 4.30772,5.61393 1.44787,-0.99897 4.43174,-1.67443 6.98732,-0.89444 2.27739,3.94453 -4.26828,5.60398 -3.66597,3.00079 -1.58906,0.75441 2.70794,6.53755 1.65709,-0.59019 4.7141,-0.47036 6.98074,0.94449 1.17886,4.39956 -5.57325,4.30832 -4.31772,1.94971 -1.73017,0.31742 z"
         style="fill:url(#radialGradient4388);stroke:#000000;stroke-width:1;fill-opacity:1"
         inkscape:connector-curvature="0" />
      <circle
         id="path4170"
         style="fill:url(#radialGradient4388);stroke:#000000;stroke-width:1;fill-opacity:1"
         cx="0"
         cy="0"
         r="10" />
    </g>
    <g
       style="fill:none;fill-opacity:1;stroke:url(#radialGradient4378)"
       id="g4330">
      <text
         sodipodi:linespacing="125%"
         id="text4332"
         y="1003.4336"
         x="-4.3666663"
         style="font-style:normal;font-weight:normal;font-size:29.57336235px;line-height:125%;font-family:sans-serif;letter-spacing:0px;word-spacing:0px;fill:none;fill-opacity:1;stroke:url(#radialGradient4378);stroke-width:1px;stroke-linecap:butt;stroke-linejoin:miter;stroke-opacity:1"
         xml:space="preserve"><tspan
           id="tspan4334"
           style="font-style:normal;font-variant:normal;font-weight:normal;font-stretch:normal;font-size:110.90010834px;font-family:'Berlin Sans FB';-inkscape-font-specification:'Berlin Sans FB';fill:none;fill-opacity:1;stroke:url(#radialGradient4378)"
           y="1003.4336"
           x="-4.3666663"
           sodipodi:role="line">D</tspan></text>
      <text
         xml:space="preserve"
         style="font-style:normal;font-weight:normal;font-size:29.57336235px;line-height:125%;font-family:sans-serif;letter-spacing:0px;word-spacing:0px;fill:none;fill-opacity:1;stroke:url(#radialGradient4378);stroke-width:1px;stroke-linecap:butt;stroke-linejoin:miter;stroke-opacity:1"
         x="83.490479"
         y="1003.7907"
         id="text4336"
         sodipodi:linespacing="125%"><tspan
           sodipodi:role="line"
           id="tspan4338"
           x="83.490479"
           y="1003.7907"
           style="font-style:normal;font-variant:normal;font-weight:normal;font-stretch:normal;font-size:110.90010834px;font-family:'Berlin Sans FB';-inkscape-font-specification:'Berlin Sans FB';fill:none;fill-opacity:1;stroke:url(#radialGradient4378)">I</tspan></text>
      <text
         sodipodi:linespacing="125%"
         id="text4340"
         y="1052.3622"
         x="64.447731"
         style="font-style:normal;font-weight:normal;font-size:29.57336235px;line-height:125%;font-family:sans-serif;letter-spacing:0px;word-spacing:0px;fill:none;fill-opacity:1;stroke:url(#radialGradient4378);stroke-width:1px;stroke-linecap:butt;stroke-linejoin:miter;stroke-opacity:1"
         xml:space="preserve"><tspan
           style="font-style:normal;font-variant:normal;font-weight:normal;font-stretch:normal;font-size:110.90010834px;font-family:'Berlin Sans FB';-inkscape-font-specification:'Berlin Sans FB';fill:none;fill-opacity:1;stroke:url(#radialGradient4378)"
           y="1052.3622"
           x="64.447731"
           id="tspan4342"
           sodipodi:role="line">Y</tspan></text>
    </g>
  </g>
</svg>
